<?xml version="1.0" standalone="no"?>
 <!DOCTYPE svg PUBLIC "-//W3C//DTD SVG 1.1//EN" 
 "http://www.w3.org/Graphics/SVG/1.1/DTD/svg11.dtd"> 
<svg
  xmlns:svg="http://www.w3.org/2000/svg"
  xmlns="http://www.w3.org/2000/svg"
  xmlns:xlink="http://www.w3.org/1999/xlink"
  xmlns:inkscape="http://www.inkscape.org/namespaces/inkscape"
  version="1.1"
  width="297.0022mm" height="210.0072mm" viewBox="0.0000 0.0000 297.0022 210.0072">
<title>SVG Image created as specimen.svg date 2026-10-10T16:39:41 </title>
  <desc>Image generated by Eeschema-SVG </desc>
<g style="fill:#000000; fill-opacity:1.0000;stroke:#000000; stroke-opacity:1.0000;
stroke-linecap:round; stroke-linejoin:round;"
 transform="translate(0 0) scale(1 1)">
</g>
<g style="fill:none; 
stroke:#840000; stroke-width:0.1524; stroke-opacity:1; 
stroke-linecap:round; stroke-linejoin:round;">
<text x="81.1250" y="50.5714"
textLength="4.5905" font-size="1.3333" lengthAdjust="spacingAndGlyphs"
text-anchor="start" opacity="0" stroke-opacity="0">NET_A</text>
<g class="stroked-text"><desc>NET_A</desc>
<path d="M81.4632 50.5260
L81.4632 49.5260
" />
<path d="M81.4632 49.5260
L82.0347 50.5260
" />
<path d="M82.0347 50.5260
L82.0347 49.5260
" />
<path d="M82.5108 50.0022
L82.8442 50.0022
" />
<path d="M82.9870 50.5260
L82.5108 50.5260
" />
<path d="M82.5108 50.5260
L82.5108 49.5260
" />
<path d="M82.5108 49.5260
L82.9870 49.5260
" />
<path d="M83.2728 49.5260
L83.8442 49.5260
" />
<path d="M83.5585 50.5260
L83.5585 49.5260
" />
<path d="M83.9395 50.6212
L84.7014 50.6212
" />
<path d="M84.8918 50.2403
L85.3680 50.2403
" />
<path d="M84.7966 50.5260
L85.1299 49.5260
" />
<path d="M85.1299 49.5260
L85.4633 50.5260
" />
</g><path style="fill:none; 
stroke:#840000; stroke-width:0.1524; stroke-opacity:1; 
stroke-linecap:round; stroke-linejoin:round;fill:none"
d="M 80.0000,50.0000
80.8750,51.0003
86.2586,51.0003
86.2586,50.0000
86.2586,48.9997
80.8750,48.9997
Z" /> 
</g> 
</svg>
