<?xml version="1.0" standalone="no"?>
 <!DOCTYPE svg PUBLIC "-//W3C//DTD SVG 1.1//EN" 
 "http://www.w3.org/Graphics/SVG/1.1/DTD/svg11.dtd"> 
<svg
  xmlns:svg="http://www.w3.org/2000/svg"
  xmlns="http://www.w3.org/2000/svg"
  xmlns:xlink="http://www.w3.org/1999/xlink"
  xmlns:inkscape="http://www.inkscape.org/namespaces/inkscape"
  version="1.1"
  width="297.0022mm" height="210.0072mm" viewBox="0.0000 0.0000 297.0022 210.0072">
<title>SVG Image created as specimen.svg date 2026-10-10T16:39:44 </title>
  <desc>Image generated by Eeschema-SVG </desc>
<g style="fill:#000000; fill-opacity:1.0000;stroke:#000000; stroke-opacity:1.0000;
stroke-linecap:round; stroke-linejoin:round;"
 transform="translate(0 0) scale(1 1)">
</g>
<g style="fill:none; 
stroke:#840000; stroke-width:0.1524; stroke-opacity:1; 
stroke-linecap:round; stroke-linejoin:round;">
<g transform="rotate(-90.000000 80.0714 50.3750)">
<text x="80.0714" y="50.8750"
textLength="4.5905" font-size="1.3333" lengthAdjust="spacingAndGlyphs"
text-anchor="end" opacity="0" stroke-opacity="0">NET_A</text>
</g>
<g class="stroked-text"><desc>NET_A</desc>
<path d="M80.5260 54.5704
L79.5260 54.5704
" />
<path d="M79.5260 54.5704
L80.5260 53.9989
" />
<path d="M80.5260 53.9989
L79.5260 53.9989
" />
<path d="M80.0022 53.5228
L80.0022 53.1894
" />
<path d="M80.5260 53.0466
L80.5260 53.5228
" />
<path d="M80.5260 53.5228
L79.5260 53.5228
" />
<path d="M79.5260 53.5228
L79.5260 53.0466
" />
<path d="M79.5260 52.7608
L79.5260 52.1894
" />
<path d="M80.5260 52.4751
L79.5260 52.4751
" />
<path d="M80.6212 52.0942
L80.6212 51.3322
" />
<path d="M80.2403 51.1418
L80.2403 50.6656
" />
<path d="M80.5260 51.2370
L79.5260 50.9037
" />
<path d="M79.5260 50.9037
L80.5260 50.5703
" />
</g><path style="fill:none; 
stroke:#840000; stroke-width:0.1524; stroke-opacity:1; 
stroke-linecap:round; stroke-linejoin:round;fill:none"
d="M 80.0000,50.0000
78.9997,50.0000
78.9997,55.3836
80.0000,55.3836
81.0003,55.3836
81.0003,50.0000
Z" /> 
</g> 
</svg>
