<?xml version="1.0" standalone="no"?>
 <!DOCTYPE svg PUBLIC "-//W3C//DTD SVG 1.1//EN" 
 "http://www.w3.org/Graphics/SVG/1.1/DTD/svg11.dtd"> 
<svg
  xmlns:svg="http://www.w3.org/2000/svg"
  xmlns="http://www.w3.org/2000/svg"
  xmlns:xlink="http://www.w3.org/1999/xlink"
  xmlns:inkscape="http://www.inkscape.org/namespaces/inkscape"
  version="1.1"
  width="297.0022mm" height="210.0072mm" viewBox="0.0000 0.0000 297.0022 210.0072">
<title>SVG Image created as specimen.svg date 2026-10-10T16:39:41 </title>
  <desc>Image generated by Eeschema-SVG </desc>
<g style="fill:#000000; fill-opacity:1.0000;stroke:#000000; stroke-opacity:1.0000;
stroke-linecap:round; stroke-linejoin:round;"
 transform="translate(0 0) scale(1 1)">
</g>
<g style="fill:none; 
stroke:#840000; stroke-width:0.1524; stroke-opacity:1; 
stroke-linecap:round; stroke-linejoin:round;">
<text x="81.4288" y="50.7258"
textLength="5.7065" font-size="1.6933" lengthAdjust="spacingAndGlyphs"
text-anchor="start" opacity="0" stroke-opacity="0">NET_A</text>
<g class="stroked-text"><desc>NET_A</desc>
<path d="M81.8313 50.6703
L81.8313 49.4003
" />
<path d="M81.8313 49.4003
L82.5570 50.6703
" />
<path d="M82.5570 50.6703
L82.5570 49.4003
" />
<path d="M83.1618 50.0051
L83.5852 50.0051
" />
<path d="M83.7666 50.6703
L83.1618 50.6703
" />
<path d="M83.1618 50.6703
L83.1618 49.4003
" />
<path d="M83.1618 49.4003
L83.7666 49.4003
" />
<path d="M84.1294 49.4003
L84.8551 49.4003
" />
<path d="M84.4923 50.6703
L84.4923 49.4003
" />
<path d="M84.9761 50.7913
L85.9437 50.7913
" />
<path d="M86.1856 50.3075
L86.7903 50.3075
" />
<path d="M86.0646 50.6703
L86.4879 49.4003
" />
<path d="M86.4879 49.4003
L86.9113 50.6703
" />
</g><path style="fill:none; 
stroke:#840000; stroke-width:0.1524; stroke-opacity:1; 
stroke-linecap:round; stroke-linejoin:round;fill:none"
d="M 80.0000,50.0000
81.1113,51.2704
87.9487,51.2704
87.9487,50.0000
87.9487,48.7296
81.1113,48.7296
Z" /> 
</g> 
</svg>
