<?xml version="1.0" standalone="no"?>
 <!DOCTYPE svg PUBLIC "-//W3C//DTD SVG 1.1//EN" 
 "http://www.w3.org/Graphics/SVG/1.1/DTD/svg11.dtd"> 
<svg
  xmlns:svg="http://www.w3.org/2000/svg"
  xmlns="http://www.w3.org/2000/svg"
  xmlns:xlink="http://www.w3.org/1999/xlink"
  xmlns:inkscape="http://www.inkscape.org/namespaces/inkscape"
  version="1.1"
  width="297.0022mm" height="210.0072mm" viewBox="0.0000 0.0000 297.0022 210.0072">
<title>SVG Image created as specimen.svg date 2026-10-10T16:39:42 </title>
  <desc>Image generated by Eeschema-SVG </desc>
<g style="fill:#000000; fill-opacity:1.0000;stroke:#000000; stroke-opacity:1.0000;
stroke-linecap:round; stroke-linejoin:round;"
 transform="translate(0 0) scale(1 1)">
</g>
<g style="fill:none; 
stroke:#840000; stroke-width:0.1524; stroke-opacity:1; 
stroke-linecap:round; stroke-linejoin:round;">
<g transform="rotate(-90.000000 80.0908 51.4288)">
<text x="80.0908" y="52.0638"
textLength="5.7065" font-size="1.6933" lengthAdjust="spacingAndGlyphs"
text-anchor="end" opacity="0" stroke-opacity="0">NET_A</text>
</g>
<g class="stroked-text"><desc>NET_A</desc>
<path d="M80.6703 56.7299
L79.4003 56.7299
" />
<path d="M79.4003 56.7299
L80.6703 56.0042
" />
<path d="M80.6703 56.0042
L79.4003 56.0042
" />
<path d="M80.0051 55.3994
L80.0051 54.9760
" />
<path d="M80.6703 54.7946
L80.6703 55.3994
" />
<path d="M80.6703 55.3994
L79.4003 55.3994
" />
<path d="M79.4003 55.3994
L79.4003 54.7946
" />
<path d="M79.4003 54.4318
L79.4003 53.7061
" />
<path d="M80.6703 54.0689
L79.4003 54.0689
" />
<path d="M80.7913 53.5852
L80.7913 52.6175
" />
<path d="M80.3075 52.3756
L80.3075 51.7709
" />
<path d="M80.6703 52.4966
L79.4003 52.0733
" />
<path d="M79.4003 52.0733
L80.6703 51.6499
" />
</g><path style="fill:none; 
stroke:#840000; stroke-width:0.1524; stroke-opacity:1; 
stroke-linecap:round; stroke-linejoin:round;fill:none"
d="M 80.0000,50.0000
78.7296,51.1113
78.7296,57.9487
80.0000,57.9487
81.2704,57.9487
81.2704,51.1113
Z" /> 
</g> 
</svg>
